# xmcd CD database file generated by Grip 3.2.0
# 
# Track frame offsets:
#       150
#       17792
#       39340
#       59237
#       83342
#       106670
#       128212
#       152460
#       171930
#       194687
#       209020
#       228832
#       251492
# 
# Disc length: 3577 seconds
# 
# Revision: 5
# Processed by: cddbd v1.5.2PL0 Copyright (c) Steve Scherf et al.
# Submitted via: Grip 3.2.0
# 
DISCID=a80df70d
DTITLE=Various Artist - Blues For A Rotten Afternoon
DYEAR=2000
DGENRE=Blues
TTITLE0=Junior Wells - Why Are People Like That?
TTITLE1=Terry Evans - Credit Card Blues
TTITLE2=Mario Muldaur - Misery And The Blues
TTITLE3=Sugar Ray Norcia, Charlie Musselwhite - Life Will Be Better
TTITLE4=Luther "Guitar Junior" Johnson - So Mean To Me
TTITLE5=Debbie Davies, Kenny Neal - Money
TTITLE6=Son Seals - Love Had A Breakdown
TTITLE7=Kenny Neal - Killed The Goose That Laid The Golden Egg
TTITLE8=Lady Bianca - How Do I Tell My Little Sister?
TTITLE9=Sam Lay - Somebody Gotta Do It
TTITLE10=Willie Dixon Tribute - If The Sea Was Whiskey
TTITLE11=John Primer - Brutal Hearted Woman
TTITLE12=Marty Grebb - Hen House
EXTD=
EXTT0=
EXTT1=
EXTT2=
EXTT3=
EXTT4=
EXTT5=
EXTT6=
EXTT7=
EXTT8=
EXTT9=
EXTT10=
EXTT11=
EXTT12=
PLAYORDER=
